<svg id="visual" viewBox="0 0 1920 800" width="1920" height="800" xmlns="http://www.w3.org/2000/svg" xmlns:xlink="http://www.w3.org/1999/xlink" version="1.1"><rect x="0" y="0" width="1920" height="800" fill="#002233"></rect><path d="M0 627L45.7 617.2C91.3 607.3 182.7 587.7 274.2 594.8C365.7 602 457.3 636 548.8 655.3C640.3 674.7 731.7 679.3 823 654.7C914.3 630 1005.7 576 1097 554.7C1188.3 533.3 1279.7 544.7 1371.2 571.8C1462.7 599 1554.3 642 1645.8 648.3C1737.3 654.7 1828.7 624.3 1874.3 609.2L1920 594L1920 801L1874.3 801C1828.7 801 1737.3 801 1645.8 801C1554.3 801 1462.7 801 1371.2 801C1279.7 801 1188.3 801 1097 801C1005.7 801 914.3 801 823 801C731.7 801 640.3 801 548.8 801C457.3 801 365.7 801 274.2 801C182.7 801 91.3 801 45.7 801L0 801Z" fill="#0066FF" stroke-linecap="round" stroke-linejoin="miter"></path></svg>